# xmcd
#
# Track frame offsets:
# 150
# 16166
# 36402
# 49462
# 63536
# 75571
# 89087
# 105281
# 117657
# 131884
# 143198
# 157182
# 168986
# 183392
# 196414
# 212841
#
# Disc length: 3033 seconds
#
#
# Revision: 0
# Processed by: cddbd v1.5.2PL0 Copyright (c) Steve Scherf et al.
# Submitted via: FreeRIP 2.90 
#
DISCID=ef0bd710
DTITLE=Varios - Salve Jorge
DYEAR=2012
DGENRE=Country
TTITLE0=Bruno e Marrone - Eu nao vou aceitar
TTITLE1=Roberto Carlos - Esse cara sou eu
TTITLE2=Fernando e Sorocaba - Livre
TTITLE3=Joao Bosco e Vinicius - Descontrolar
TTITLE4=Dablio - Brincadeira
TTITLE5=Jorge e Mateus - Nao demora a perceber
TTITLE6=Leonardo - Beber beber
TTITLE7=Cristiano Araujo - Bara bara
TTITLE8=Gusttavo Lima - Gatinha assanhada
TTITLE9=Michel Telo - E nois faze parapapa
TTITLE10=Munhoz e Mariano - Camaro amarelo
TTITLE11=Dablio - As baladeiras
TTITLE12=Paula Fernandes - Mineirinha ferveu
TTITLE13=Marcos e Belutti - Chega e chora
TTITLE14=Zeze e Luciano - Sou seu amor e voce e a minha vida
TTITLE15=Luan Santana - Te vivo
EXTD=
EXTT0=
EXTT1=
EXTT2=
EXTT3=
EXTT4=
EXTT5=
EXTT6=
EXTT7=
EXTT8=
EXTT9=
EXTT10=
EXTT11=
EXTT12=
EXTT13=
EXTT14=
EXTT15=
PLAYORDER=
